<svg width="35" height="22" viewBox="0 0 35 22" fill="none" xmlns="http://www.w3.org/2000/svg">
<path d="M30 1H5C2.79086 1 1 2.79086 1 5V17C1 19.2091 2.79086 21 5 21H30C32.2091 21 34 19.2091 34 17V5C34 2.79086 32.2091 1 30 1Z" stroke="white" stroke-width="2"/>
<path d="M15.2891 13.8809C15 14.2949 14.5957 14.6055 14.0762 14.8125C13.5605 15.0156 12.959 15.1172 12.2715 15.1172C11.5762 15.1172 10.959 14.9551 10.4199 14.6309C9.88086 14.3027 9.46289 13.8379 9.16602 13.2363C8.87305 12.6348 8.72266 11.9375 8.71484 11.1445V10.4004C8.71484 9.11523 9.01367 8.11914 9.61133 7.41211C10.2129 6.70508 11.0566 6.35156 12.1426 6.35156C13.0332 6.35156 13.75 6.58008 14.293 7.03711C14.8359 7.49023 15.168 8.13477 15.2891 8.9707H14.1641C13.9531 7.8418 13.2812 7.27734 12.1484 7.27734C11.3945 7.27734 10.8223 7.54297 10.4316 8.07422C10.0449 8.60156 9.84961 9.36719 9.8457 10.3711V11.0684C9.8457 12.0254 10.0645 12.7871 10.502 13.3535C10.9395 13.916 11.5312 14.1973 12.2773 14.1973C12.6992 14.1973 13.0684 14.1504 13.3848 14.0566C13.7012 13.9629 13.9629 13.8047 14.1699 13.582V11.666H12.1953V10.752H15.2891V13.8809ZM18.377 15H17.252V6.46875H18.377V15ZM25.1445 11.2324H21.5645V15H20.4395V6.46875H25.7246V7.39453H21.5645V10.3125H25.1445V11.2324Z" fill="white"/>
</svg>
