<svg width="40" height="39" viewBox="0 0 40 39" fill="none" xmlns="http://www.w3.org/2000/svg">
<path d="M35.5117 7.97139L33.3086 9.65098C30.3047 5.90713 25.6328 3.50391 20.3867 3.50391C11.3281 3.50391 3.99611 10.645 3.98439 19.481C3.97267 28.3245 11.3203 35.4961 20.3867 35.4961C27.4688 35.4961 33.5039 31.1162 35.8008 24.9806C35.8594 24.8206 35.7735 24.6416 35.6094 24.5883L33.3945 23.8456C33.3173 23.8198 33.2328 23.8245 33.1591 23.8586C33.0854 23.8928 33.0283 23.9537 33 24.0284C32.9297 24.2188 32.8516 24.4093 32.7695 24.5959C32.0938 26.1574 31.125 27.559 29.8906 28.7625C28.6662 29.9586 27.2165 30.9129 25.6211 31.5732C23.9688 32.255 22.207 32.6016 20.3945 32.6016C18.5781 32.6016 16.8203 32.255 15.168 31.5732C13.571 30.9157 12.1208 29.961 10.8985 28.7625C9.67072 27.5688 8.69292 26.1537 8.01955 24.5959C7.32033 22.9811 6.96486 21.2672 6.96486 19.4962C6.96486 17.7252 7.32033 16.0113 8.01955 14.3965C8.69533 12.835 9.66408 11.4334 10.8985 10.2299C12.1328 9.02637 13.5703 8.08184 15.168 7.41914C16.8203 6.7374 18.582 6.39082 20.3945 6.39082C22.211 6.39082 23.9688 6.7374 25.6211 7.41914C27.2181 8.07667 28.6683 9.03139 29.8906 10.2299C30.2774 10.6069 30.6406 11.0068 30.9766 11.4258L28.625 13.2158C28.5785 13.2509 28.5431 13.2981 28.5228 13.3519C28.5026 13.4058 28.4983 13.4641 28.5106 13.5202C28.5228 13.5763 28.551 13.6279 28.592 13.6691C28.633 13.7102 28.6851 13.7392 28.7422 13.7528L35.6016 15.3905C35.7969 15.4362 35.9883 15.2915 35.9883 15.0973L36.0195 8.20752C36.0156 7.95615 35.7149 7.81523 35.5117 7.97139Z" fill="white"/>
</svg>
